<svg width="514" height="514" viewBox="0 0 514 514" fill="none" xmlns="http://www.w3.org/2000/svg">
<rect x="17" y="17" width="480" height="480" rx="90" fill="#5D3136"/>
<path d="M289.256 137.72H206.528V247.329H289.256C304.942 247.329 315.441 243.536 320.754 235.951C326.067 228.365 328.723 217.619 328.723 203.713V177.164C328.723 165.533 325.434 156.051 318.856 148.718C312.532 141.386 302.665 137.72 289.256 137.72ZM247.513 168.061H275.974C282.552 168.061 286.979 169.831 289.256 173.371C291.533 176.658 292.672 180.83 292.672 185.887V198.782C292.672 203.839 291.533 208.137 289.256 211.677C286.979 214.964 282.552 216.608 275.974 216.608H247.513V168.061ZM206.528 338.733H202.733V133.927H289.256C303.93 133.927 314.809 138.099 321.892 146.443C328.976 154.534 332.518 164.774 332.518 177.164V203.333C332.518 214.964 331 224.572 327.964 232.158C324.928 239.49 318.856 244.547 309.749 247.329H313.923C329.356 247.329 340.867 250.868 348.456 257.948C356.046 264.775 359.841 274.762 359.841 287.91V338.733H356.046V287.91C356.046 275.521 352.631 266.292 345.8 260.224C338.969 253.903 328.344 250.742 313.923 250.742H206.528V338.733ZM233.851 372.867C238.658 372.867 242.074 371.856 244.097 369.833C246.374 367.557 247.513 364.017 247.513 359.213V284.876H300.641C305.954 284.876 309.622 286.267 311.646 289.048C313.923 291.577 315.062 295.622 315.062 301.185V359.213C315.062 364.017 316.074 367.557 318.097 369.833C320.374 371.856 323.916 372.867 328.723 372.867H387.544C392.35 372.867 395.766 371.856 397.79 369.833C400.067 367.557 401.205 364.017 401.205 359.213V278.808C401.205 262.879 396.904 250.11 388.303 240.502C379.954 230.894 368.949 225.331 355.287 223.814C363.13 220.527 368.569 215.217 371.605 207.885C374.894 200.299 376.538 191.197 376.538 180.577V163.131C376.538 144.42 371.099 129.249 360.221 117.618C349.595 105.735 330.115 99.7927 301.779 99.7927H175.41C170.603 99.7927 167.062 100.931 164.785 103.206C162.761 105.229 161.749 108.642 161.749 113.446V359.213C161.749 364.017 162.761 367.557 164.785 369.833C167.062 371.856 170.603 372.867 175.41 372.867H233.851ZM245.995 373.246L196.662 414.207C195.65 415.219 194.005 416.104 191.728 416.862C189.704 417.621 187.427 418 184.897 418H126.456C120.385 418 115.957 416.609 113.174 413.828C110.391 411.047 109 406.622 109 400.554V154.787C109 151.5 109.379 148.718 110.138 146.443C111.15 144.167 112.542 142.271 114.313 140.754L163.267 99.4134C164.532 98.402 166.176 97.6435 168.2 97.1378C170.477 96.3793 172.88 96 175.41 96H301.779C331.885 96 352.504 102.321 363.636 114.963C374.768 127.353 380.333 143.409 380.333 163.131V180.577C380.333 189.932 379.195 198.15 376.918 205.23C374.641 212.057 370.973 217.619 365.913 221.918H365.533C377.424 225.205 386.911 231.779 393.995 241.64C401.332 251.501 405 263.89 405 278.808V359.213C405 362.5 404.494 365.282 403.482 367.557C402.723 369.833 401.458 371.729 399.687 373.246L350.354 414.207C349.342 415.219 347.697 416.104 345.421 416.862C343.397 417.621 341.12 418 338.59 418H279.769C273.697 418 269.27 416.609 266.487 413.828C263.704 411.047 262.313 406.622 262.313 400.554V342.525C262.313 338.48 261.554 335.446 260.036 333.423C258.518 331.147 255.735 330.009 251.687 330.009H251.308V359.213C251.308 362.5 250.802 365.282 249.79 367.557C249.031 369.833 247.766 371.729 245.995 373.246Z" fill="#FFE2C5"/>
</svg>
