<svg width="1149" height="247" viewBox="0 0 1149 247" fill="none" xmlns="http://www.w3.org/2000/svg">
<path d="M138.59 32.0024H74.9846V116.081H138.59C150.65 116.081 158.722 113.172 162.807 107.353C166.892 101.535 168.934 93.2917 168.934 82.6243V62.2591C168.934 53.3373 166.406 46.064 161.348 40.4393C156.485 34.8147 148.899 32.0024 138.59 32.0024ZM106.496 55.2768H128.378C133.436 55.2768 136.84 56.6345 138.59 59.3498C140.341 61.8712 141.216 65.0715 141.216 68.9505V78.8422C141.216 82.7212 140.341 86.0185 138.59 88.7338C136.84 91.2552 133.436 92.5159 128.378 92.5159H106.496V55.2768ZM74.9846 186.196H72.0669V29.093H138.59C149.872 29.093 158.236 32.2933 163.682 38.6938C169.129 44.9003 171.852 52.7554 171.852 62.2591V82.3333C171.852 91.2552 170.685 98.6254 168.351 104.444C166.017 110.069 161.348 113.948 154.346 116.081H157.555C169.421 116.081 178.271 118.797 184.106 124.227C189.942 129.464 192.859 137.125 192.859 147.211V186.196H189.942V147.211C189.942 137.707 187.316 130.628 182.064 125.973C176.812 121.124 168.642 118.7 157.555 118.7H74.9846V186.196ZM95.992 212.379C99.6877 212.379 102.314 211.603 103.87 210.052C105.62 208.306 106.496 205.591 106.496 201.906V144.883H147.343C151.428 144.883 154.249 145.95 155.805 148.084C157.555 150.023 158.431 153.126 158.431 157.393V201.906C158.431 205.591 159.209 208.306 160.765 210.052C162.515 211.603 165.239 212.379 168.934 212.379H214.158C217.854 212.379 220.48 211.603 222.036 210.052C223.787 208.306 224.662 205.591 224.662 201.906V140.229C224.662 128.009 221.355 118.215 214.742 110.845C208.323 103.474 199.862 99.2073 189.358 98.0436C195.388 95.5222 199.57 91.4492 201.904 85.8245C204.433 80.0059 205.697 73.0236 205.697 64.8775V51.4947C205.697 37.1421 201.515 25.5049 193.151 16.583C184.982 7.46721 170.004 2.9093 148.219 2.9093H51.0596C47.3638 2.9093 44.6407 3.78209 42.89 5.52768C41.3339 7.07931 40.5559 9.69769 40.5559 13.3828V201.906C40.5559 205.591 41.3339 208.306 42.89 210.052C44.6407 211.603 47.3638 212.379 51.0596 212.379H95.992ZM105.329 212.67L67.3987 244.091C66.6206 244.867 65.3563 245.545 63.6056 246.127C62.0495 246.709 60.2989 247 58.3538 247H13.4214C8.75307 247 5.3491 245.933 3.20946 243.8C1.06982 241.666 0 238.272 0 233.617V45.0942C0 42.5728 0.291769 40.4393 0.875307 38.6938C1.65336 36.9482 2.72318 35.4935 4.08477 34.3298L41.723 2.61838C42.6955 1.84256 43.9599 1.26069 45.516 0.87278C47.2666 0.290927 49.1145 0 51.0596 0H148.219C171.366 0 187.218 4.84884 195.777 14.5465C204.336 24.0503 208.615 36.3663 208.615 51.4947V64.8775C208.615 72.0538 207.74 78.3573 205.989 83.788C204.238 89.0247 201.418 93.2917 197.528 96.5889H197.236C206.378 99.1103 213.672 104.153 219.119 111.717C224.759 119.282 227.58 128.785 227.58 140.229V201.906C227.58 204.427 227.191 206.561 226.413 208.306C225.829 210.052 224.857 211.506 223.495 212.67L185.565 244.091C184.787 244.867 183.523 245.545 181.772 246.127C180.216 246.709 178.465 247 176.52 247H131.296C126.628 247 123.224 245.933 121.084 243.8C118.945 241.666 117.875 238.272 117.875 233.617V189.105C117.875 186.002 117.291 183.674 116.124 182.122C114.957 180.377 112.817 179.504 109.705 179.504H109.413V201.906C109.413 204.427 109.024 206.561 108.246 208.306C107.663 210.052 106.69 211.506 105.329 212.67Z" fill="#FFE2C5"/>
<path d="M315.92 124.227V133.246H429.71V124.227C429.71 118.991 429.223 114.142 428.251 109.681C427.473 105.22 426.403 101.05 425.041 97.1708L404.909 49.7491C402.77 44.7063 400.533 40.5363 398.199 37.2391C395.864 33.7479 391.974 32.0024 386.528 32.0024H357.934C352.099 32.0024 348.014 33.7479 345.68 37.2391C343.346 40.5363 341.206 44.6093 339.261 49.4582L320.588 97.1708C319.226 101.05 318.059 105.22 317.087 109.681C316.309 114.142 315.92 118.991 315.92 124.227ZM362.603 64.0047C363.381 62.2591 364.159 60.9984 364.937 60.2226C365.909 59.4468 366.979 59.0589 368.146 59.0589H375.441C376.608 59.0589 377.58 59.4468 378.358 60.2226C379.331 60.9984 380.206 62.2591 380.984 64.0047L394.697 108.226H348.89L362.603 64.0047ZM429.71 186.196V136.155H315.92V186.196H313.002V124.227C313.002 118.797 313.391 113.851 314.169 109.39C315.142 104.735 316.406 100.274 317.962 96.0071L336.635 48.2945C338.775 42.8638 341.206 38.3059 343.93 34.6207C346.653 30.9356 351.321 29.093 357.934 29.093H386.528C392.947 29.093 397.421 30.9356 399.949 34.6207C402.672 38.3059 405.201 42.9607 407.535 48.5854L427.667 96.0071C429.223 100.274 430.39 104.735 431.168 109.39C432.141 113.851 432.627 118.797 432.627 124.227V186.196H429.71ZM345.972 201.906V161.176H397.615V201.906C397.615 205.591 398.49 208.306 400.241 210.052C402.186 211.603 405.104 212.379 408.994 212.379H453.051C456.747 212.379 459.373 211.603 460.929 210.052C462.68 208.306 463.555 205.591 463.555 201.906V125.1C463.555 119.282 462.582 112.59 460.637 105.026C458.887 97.4617 456.066 88.6368 452.176 78.5512L426.792 12.51C425.625 9.21279 423.777 6.78837 421.248 5.23675C418.914 3.68512 415.899 2.9093 412.203 2.9093H333.718C329.827 2.9093 326.618 3.68512 324.089 5.23675C321.755 6.78837 320.004 9.21279 318.837 12.51L293.453 78.5512C289.563 88.6368 286.646 97.4617 284.7 105.026C282.95 112.59 282.075 119.282 282.075 125.1V201.906C282.075 205.591 282.853 208.306 284.409 210.052C286.159 211.603 288.882 212.379 292.578 212.379H335.468C339.164 212.379 341.79 211.603 343.346 210.052C345.097 208.306 345.972 205.591 345.972 201.906ZM306.875 244.091C306.097 244.867 304.832 245.545 303.082 246.127C301.526 246.709 299.775 247 297.83 247H254.94C250.272 247 246.868 245.933 244.728 243.8C242.588 241.666 241.519 238.272 241.519 233.617V156.812C241.519 150.799 242.394 144.011 244.145 136.446C246.09 128.688 249.105 119.572 253.189 109.099L278.282 43.3486C278.865 41.6031 279.546 40.1484 280.324 38.9847C281.296 37.627 282.269 36.4633 283.242 35.4935L283.533 35.2026L320.88 4.07303C322.436 2.71535 324.284 1.74558 326.423 1.16372C328.563 0.387908 330.994 0 333.718 0H412.203C416.677 0 420.276 0.969767 422.999 2.9093C425.917 4.65489 428.056 7.46721 429.418 11.3463L454.802 77.3875C458.887 87.861 461.804 96.9768 463.555 104.735C465.5 112.299 466.473 119.088 466.473 125.1V201.906C466.473 204.427 466.084 206.561 465.305 208.306C464.722 210.052 463.749 211.506 462.388 212.67L424.458 244.091C423.68 244.867 422.415 245.545 420.665 246.127C419.109 246.709 417.358 247 415.413 247H371.356C366.493 247 362.895 245.836 360.56 243.509C358.226 241.375 357.059 238.078 357.059 233.617V195.796H348.89V201.906C348.89 204.427 348.501 206.561 347.723 208.306C347.139 210.052 346.166 211.506 344.805 212.67L306.875 244.091Z" fill="#FFE2C5"/>
<path d="M496.256 247C491.587 247 488.183 245.933 486.044 243.8C483.904 241.666 482.834 238.272 482.834 233.617V199.578C482.834 197.057 483.126 194.923 483.71 193.178C484.488 191.432 485.558 189.978 486.919 188.814L516.096 164.376C505.787 161.272 497.617 156.036 491.587 148.665C485.752 141.101 482.834 130.337 482.834 116.372V85.8245C482.834 77.0966 484.293 69.3384 487.211 62.5501C490.129 55.7617 494.311 50.04 499.757 45.3852L537.687 13.6737C542.939 9.40675 549.455 6.10954 557.235 3.7821C565.016 1.2607 573.866 0 583.786 0H665.482C670.15 0 673.554 1.06674 675.694 3.20023C677.833 5.33373 678.903 8.72792 678.903 13.3828V48.0035C678.903 50.5249 678.514 52.6584 677.736 54.404C677.153 56.1496 676.18 57.6042 674.818 58.768L648.559 80.5878C660.814 83.3031 670.636 88.4429 678.028 96.0071C685.614 103.377 689.407 114.918 689.407 130.628V161.176C689.407 169.903 687.948 177.662 685.03 184.45C682.113 191.238 677.833 196.96 672.193 201.615L634.554 233.035C629.108 237.496 622.495 240.89 614.714 243.218C606.933 245.739 598.18 247 588.455 247H496.256ZM626.093 212.379C644.766 212.379 659.452 208.015 670.15 199.287C681.043 190.366 686.489 177.662 686.489 161.176V130.628C686.489 114.336 682.307 102.698 673.943 95.7161C665.579 88.7338 654.589 84.2729 640.973 82.3333L597.5 76.5147C594.971 76.3208 593.026 75.351 591.664 73.6054C590.303 71.8598 589.622 69.7263 589.622 67.2049C589.622 64.6835 590.303 62.647 591.664 61.0954C593.026 59.3498 594.971 58.477 597.5 58.477H665.482C669.178 58.477 671.803 57.7012 673.359 56.1496C675.11 54.404 675.985 51.6887 675.985 48.0035V13.3828C675.985 9.69769 675.11 7.07931 673.359 5.52768C671.803 3.78209 669.178 2.9093 665.482 2.9093H583.786C564.919 2.9093 550.136 7.37024 539.438 16.2921C528.739 25.02 523.39 37.627 523.39 54.1131V84.6608C523.39 100.953 527.475 112.59 535.645 119.572C544.009 126.555 554.999 131.016 568.614 132.955L612.38 139.065C614.908 139.259 616.756 140.132 617.923 141.683C619.285 143.235 619.966 145.659 619.966 148.956C619.966 151.284 619.285 153.32 617.923 155.066C616.756 156.618 614.908 157.393 612.38 157.393H533.894C530.198 157.393 527.475 158.266 525.724 160.012C524.168 161.563 523.39 164.182 523.39 167.867V201.906C523.39 205.591 524.168 208.306 525.724 210.052C527.475 211.603 530.198 212.379 533.894 212.379H626.093ZM649.726 29.093V32.0024H584.954C576.784 32.0024 570.268 34.2328 565.405 38.6938C560.542 43.1547 558.111 48.7794 558.111 55.5677V79.424C558.111 86.2124 559.472 90.9643 562.196 93.6796C564.919 96.395 568.517 98.1406 572.991 98.9164L634.554 111.426C640.39 112.59 645.155 115.112 648.851 118.991C652.741 122.87 654.686 129.852 654.686 139.938V156.812C654.686 165.346 651.769 172.425 645.933 178.049C640.098 183.48 632.22 186.196 622.3 186.196H549.65V183.286H622.3C631.248 183.286 638.347 180.862 643.599 176.013C649.045 170.97 651.769 164.57 651.769 156.812V139.938C651.769 130.822 650.115 124.615 646.809 121.318C643.696 117.827 639.417 115.499 633.971 114.336L572.407 101.826C567.35 100.856 563.168 98.9164 559.861 96.0071C556.749 92.9038 555.193 87.3761 555.193 79.424V55.5677C555.193 47.8096 557.916 41.5061 563.363 36.6572C568.809 31.6144 576.006 29.093 584.954 29.093H649.726Z" fill="#FFE2C5"/>
<path d="M756.84 247C752.366 247 748.767 246.127 746.044 244.382C743.321 242.83 741.084 239.921 739.334 235.654L710.74 164.376C708.99 159.915 707.433 156.133 706.072 153.029C704.905 149.732 703.932 146.629 703.154 143.72C702.376 140.616 701.793 137.416 701.404 134.119C701.209 130.628 701.112 126.555 701.112 121.9V45.0942C701.112 42.5728 701.404 40.4393 701.987 38.6938C702.765 36.9482 703.835 35.4935 705.197 34.3298L742.835 2.61838C743.807 1.84256 745.072 1.26069 746.628 0.87278C748.378 0.290927 750.226 0 752.171 0H798.563C803.231 0 806.732 1.16372 809.066 3.49116C811.595 5.62465 812.859 8.92187 812.859 13.3828V93.6796C812.859 95.6192 813.054 97.4617 813.443 99.2073C813.832 100.953 814.318 102.795 814.902 104.735L815.777 106.771V45.0942C815.777 42.5728 816.069 40.4393 816.652 38.6938C817.43 36.9482 818.5 35.4935 819.862 34.3298L857.5 2.61838C858.473 1.84256 859.737 1.26069 861.293 0.87278C863.044 0.290927 864.892 0 866.837 0H912.644C917.507 0 920.911 1.06674 922.856 3.20023C924.996 5.33373 926.066 8.72792 926.066 13.3828V90.1885C926.066 94.8433 925.871 98.9164 925.482 102.408C925.288 105.705 924.801 108.905 924.023 112.008C923.245 114.918 922.175 118.021 920.814 121.318C919.647 124.421 918.188 128.203 916.437 132.664L887.844 203.942C887.26 205.688 886.482 207.239 885.51 208.597C884.537 209.955 883.565 211.022 882.592 211.797L844.954 242.927C843.398 244.285 841.55 245.254 839.41 245.836C837.465 246.612 835.228 247 832.7 247H756.84ZM870.338 212.379C874.034 212.379 877.049 211.7 879.383 210.343C881.911 208.985 883.856 206.464 885.218 202.779L913.811 131.501C915.562 127.234 917.021 123.548 918.188 120.445C919.355 117.148 920.328 114.045 921.106 111.135C921.884 108.226 922.37 105.22 922.564 102.117C922.953 98.8194 923.148 94.8433 923.148 90.1885V13.3828C923.148 9.69769 922.273 7.07931 920.522 5.52768C918.966 3.78209 916.34 2.9093 912.644 2.9093H866.837C863.141 2.9093 860.418 3.78209 858.667 5.52768C857.111 7.07931 856.333 9.69769 856.333 13.3828V93.3887C856.333 95.3282 856.138 97.2678 855.749 99.2073C855.36 101.147 854.777 103.183 853.999 105.317L840.286 146.338C839.702 148.278 839.021 149.635 838.243 150.411C837.465 150.993 836.298 151.284 834.742 151.284H831.533C829.976 151.284 828.809 150.993 828.031 150.411C827.253 149.635 826.572 148.278 825.989 146.338L812.276 105.608C811.498 103.474 810.914 101.438 810.525 99.4982C810.136 97.5587 809.942 95.6192 809.942 93.6796V13.3828C809.942 9.69769 808.969 7.07931 807.024 5.52768C805.079 3.78209 802.258 2.9093 798.563 2.9093H752.171C748.476 2.9093 745.752 3.78209 744.002 5.52768C742.446 7.07931 741.668 9.69769 741.668 13.3828V90.1885C741.668 94.8433 741.765 98.8194 741.959 102.117C742.348 105.22 742.932 108.226 743.71 111.135C744.488 114.045 745.461 117.148 746.628 120.445C747.795 123.548 749.254 127.234 751.004 131.501L779.598 202.779C780.959 206.464 782.807 208.985 785.141 210.343C787.67 211.7 790.782 212.379 794.478 212.379H870.338ZM774.638 29.093H777.555V91.934C777.555 96.9768 777.944 101.826 778.722 106.481C779.5 110.941 780.667 115.112 782.224 118.991L801.48 165.539C803.425 170.582 805.565 174.849 807.899 178.34C810.428 181.638 814.415 183.286 819.862 183.286H845.537C850.984 183.286 854.874 181.638 857.208 178.34C859.737 174.849 861.974 170.582 863.919 165.539L883.176 118.991C884.732 115.112 885.899 110.941 886.677 106.481C887.455 101.826 887.844 96.9768 887.844 91.934V29.093H890.762V91.934C890.762 97.3647 890.373 102.408 889.595 107.062C889.011 111.523 887.844 115.887 886.093 120.154L866.837 166.703C864.503 172.328 861.876 176.983 858.959 180.668C856.041 184.353 851.567 186.196 845.537 186.196H819.862C813.832 186.196 809.358 184.353 806.44 180.668C803.523 176.983 800.897 172.328 798.563 166.703L779.306 120.154C777.555 115.887 776.291 111.523 775.513 107.062C774.929 102.408 774.638 97.3647 774.638 91.934V29.093Z" fill="#FFE2C5"/>
<path d="M955.849 247C951.181 247 947.777 245.933 945.637 243.8C943.497 241.666 942.428 238.272 942.428 233.617V199.578C942.428 197.057 942.719 194.923 943.303 193.178C944.081 191.432 945.151 189.978 946.512 188.814L975.689 164.376C965.38 161.272 957.21 156.036 951.181 148.665C945.345 141.101 942.428 130.337 942.428 116.372V85.8245C942.428 77.0966 943.886 69.3384 946.804 62.5501C949.722 55.7617 953.904 50.04 959.35 45.3852L997.28 13.6737C1002.53 9.40675 1009.05 6.10954 1016.83 3.7821C1024.61 1.2607 1033.46 0 1043.38 0H1125.07C1129.74 0 1133.15 1.06674 1135.29 3.20023C1137.43 5.33373 1138.5 8.72792 1138.5 13.3828V48.0035C1138.5 50.5249 1138.11 52.6584 1137.33 54.404C1136.75 56.1496 1135.77 57.6042 1134.41 58.768L1108.15 80.5878C1120.41 83.3031 1130.23 88.4429 1137.62 96.0071C1145.21 103.377 1149 114.918 1149 130.628V161.176C1149 169.903 1147.54 177.662 1144.62 184.45C1141.71 191.238 1137.43 196.96 1131.79 201.615L1094.15 233.035C1088.7 237.496 1082.09 240.89 1074.31 243.218C1066.53 245.739 1057.77 247 1048.05 247H955.849ZM1085.69 212.379C1104.36 212.379 1119.05 208.015 1129.74 199.287C1140.64 190.366 1146.08 177.662 1146.08 161.176V130.628C1146.08 114.336 1141.9 102.698 1133.54 95.7161C1125.17 88.7338 1114.18 84.2729 1100.57 82.3333L1057.09 76.5147C1054.56 76.3208 1052.62 75.351 1051.26 73.6054C1049.9 71.8598 1049.22 69.7263 1049.22 67.2049C1049.22 64.6835 1049.9 62.647 1051.26 61.0954C1052.62 59.3498 1054.56 58.477 1057.09 58.477H1125.07C1128.77 58.477 1131.4 57.7012 1132.95 56.1496C1134.7 54.404 1135.58 51.6887 1135.58 48.0035V13.3828C1135.58 9.69769 1134.7 7.07931 1132.95 5.52768C1131.4 3.78209 1128.77 2.9093 1125.07 2.9093H1043.38C1024.51 2.9093 1009.73 7.37024 999.031 16.2921C988.333 25.02 982.984 37.627 982.984 54.1131V84.6608C982.984 100.953 987.068 112.59 995.238 119.572C1003.6 126.555 1014.59 131.016 1028.21 132.955L1071.97 139.065C1074.5 139.259 1076.35 140.132 1077.52 141.683C1078.88 143.235 1079.56 145.659 1079.56 148.956C1079.56 151.284 1078.88 153.32 1077.52 155.066C1076.35 156.618 1074.5 157.393 1071.97 157.393H993.487C989.791 157.393 987.068 158.266 985.318 160.012C983.762 161.563 982.984 164.182 982.984 167.867V201.906C982.984 205.591 983.762 208.306 985.318 210.052C987.068 211.603 989.791 212.379 993.487 212.379H1085.69ZM1109.32 29.093V32.0024H1044.55C1036.38 32.0024 1029.86 34.2328 1025 38.6938C1020.14 43.1547 1017.7 48.7794 1017.7 55.5677V79.424C1017.7 86.2124 1019.07 90.9643 1021.79 93.6796C1024.51 96.395 1028.11 98.1406 1032.58 98.9164L1094.15 111.426C1099.98 112.59 1104.75 115.112 1108.44 118.991C1112.33 122.87 1114.28 129.852 1114.28 139.938V156.812C1114.28 165.346 1111.36 172.425 1105.53 178.049C1099.69 183.48 1091.81 186.196 1081.89 186.196H1009.24V183.286H1081.89C1090.84 183.286 1097.94 180.862 1103.19 176.013C1108.64 170.97 1111.36 164.57 1111.36 156.812V139.938C1111.36 130.822 1109.71 124.615 1106.4 121.318C1103.29 117.827 1099.01 115.499 1093.56 114.336L1032 101.826C1026.94 100.856 1022.76 98.9164 1019.45 96.0071C1016.34 92.9038 1014.79 87.3761 1014.79 79.424V55.5677C1014.79 47.8096 1017.51 41.5061 1022.96 36.6572C1028.4 31.6144 1035.6 29.093 1044.55 29.093H1109.32Z" fill="#FFE2C5"/>
</svg>
